<?xml version="1.0" encoding="UTF-8"?>
<svg width="100pt" height="100pt" version="1.1" viewBox="0 0 100 100" xmlns="http://www.w3.org/2000/svg">
 <g>
  <path d="m57.812 20.312c0-0.85938-0.70312-1.5625-1.5625-1.5625h-0.20312c-0.82031 0-1.5039 0.64062-1.5586 1.4609l-0.10938 1.6641h1.8711c0.85938 0 1.5625-0.70312 1.5625-1.5625z"/>
  <path d="m43.953 18.75h-0.20312c-0.85938 0-1.5625 0.70312-1.5625 1.5625s0.70312 1.5625 1.5625 1.5625h1.8711l-0.10938-1.6641c-0.054688-0.82031-0.74219-1.4609-1.5586-1.4609z"/>
  <path d="m43.75 43.75c0 2.5859 2.1016 4.6875 4.6875 4.6875h3.125c2.5859 0 4.6875-2.1016 4.6875-4.6875v-1.5625h-12.5z"/>
  <path d="m40.109 32.395c2.1094 1.7227 3.3828 4.125 3.5938 6.668h3.0625l-0.9375-14.062h-2.0781c-2.5859 0-4.6875-2.1016-4.6875-4.6875s2.1016-4.6875 4.6875-4.6875h0.20312c2.457 0 4.5117 1.9219 4.6758 4.375l0.125 1.875h2.4922l0.125-1.875c0.16406-2.4531 2.2188-4.375 4.6758-4.375h0.20312c2.5859 0 4.6875 2.1016 4.6875 4.6875s-2.1016 4.6875-4.6875 4.6875h-2.0781l-0.9375 14.062h3.0586c0.20312-2.5586 1.457-4.9375 3.5312-6.6172 3.6836-2.9805 5.8008-7.4062 5.8008-12.133 0-4.4414-1.8984-8.6875-5.2109-11.648-2.9023-2.5977-6.5391-3.9766-10.395-3.9766-0.60156 0-1.2109 0.035156-1.8242 0.10156-6.8477 0.76563-12.578 6.2461-13.625 13.027-0.86328 5.582 1.207 11.035 5.5391 14.578z"/>
  <path d="m51.039 25h-2.0781l0.9375 14.062h0.20312z"/>
  <path d="m17.188 62.5c0 0.86328 0.70312 1.5625 1.5625 1.5625h3.125c0.85938 0 1.5625-0.69922 1.5625-1.5625v-1.5625h-6.25z"/>
  <path d="m14.43 52.965c1.6211 1.0352 2.6172 2.832 2.7344 4.8477h1.5859v-11.371c-0.92969-0.53906-1.5625-1.5391-1.5625-2.6914 0-1.7266 1.3984-3.125 3.125-3.125s3.125 1.3984 3.125 3.125c0 1.1523-0.63281 2.1484-1.5625 2.6914v11.371h1.582c0.10156-2 1.1094-3.8047 2.7617-4.8633 3.1484-2.0273 5.0312-5.4648 5.0312-9.1992 0-3.1094-1.332-6.0859-3.6562-8.1602-2.0312-1.8164-4.5703-2.7773-7.2656-2.7773-0.42969 0-0.85938 0.023438-1.2969 0.074219-4.9141 0.55469-8.9375 4.5195-9.5625 9.4219-0.54688 4.2695 1.3555 8.3516 4.9609 10.656z"/>
  <path d="m73.805 52.965c1.6211 1.0352 2.6172 2.832 2.7344 4.8477h1.5859v-11.371c-0.92969-0.53906-1.5625-1.5391-1.5625-2.6914 0-1.7266 1.3984-3.125 3.125-3.125s3.125 1.3984 3.125 3.125c0 1.1523-0.63281 2.1484-1.5625 2.6914v11.371h1.582c0.10156-2 1.1094-3.8047 2.7617-4.8633 3.1484-2.0273 5.0312-5.4648 5.0312-9.1992 0-3.1094-1.332-6.0859-3.6562-8.1602-2.0312-1.8164-4.5703-2.7773-7.2656-2.7773-0.42969 0-0.85938 0.023438-1.2969 0.074219-4.9141 0.55469-8.9375 4.5195-9.5625 9.4219-0.54688 4.2695 1.3555 8.3516 4.9609 10.656z"/>
  <path d="m76.562 62.5c0 0.86328 0.70312 1.5625 1.5625 1.5625h3.125c0.85938 0 1.5625-0.69922 1.5625-1.5625v-1.5625h-6.25z"/>
  <path d="m95.312 95.312h3.125v3.125h-3.125z"/>
  <path d="m1.5625 95.312h3.125v3.125h-3.125z"/>
  <path d="m87.5 79.688c5.1797 0 9.375-4.1953 9.375-9.375h-7.8125c-3.2617 0-6.1328 1.668-7.8125 4.1953v-7.3203h-3.125v18.258c-1.6797-2.5273-4.5508-4.1953-7.8125-4.1953h-7.8125c0 5.1797 4.1953 9.375 9.375 9.375h6.25v4.6875h-26.562v-15.625h4.6875c4.3086 0 7.8125-3.5039 7.8125-7.8125v-1.5625h-7.8125c-1.7656 0-3.3789 0.60938-4.6875 1.6016v-6.2891h4.6875c5.1797 0 9.375-4.1953 9.375-9.375h-6.25c-3.2617 0-6.1328 1.668-7.8125 4.1953v-8.8828h-3.125v7.8516c-1.3086-0.99219-2.9219-1.6016-4.6875-1.6016h-7.8125v1.5625c0 4.3086 3.5039 7.8125 7.8125 7.8125h4.6875v17.227c-1.3086-0.99219-2.9219-1.6016-4.6875-1.6016h-7.8125v1.5625c0 4.3086 3.5039 7.8125 7.8125 7.8125h4.6875v3.125h-26.562v-15.625h6.25c5.1797 0 9.375-4.1953 9.375-9.375h-7.8125c-3.2617 0-6.1328 1.668-7.8125 4.1953v-7.3203h-3.125v18.258c-1.6797-2.5273-4.5508-4.1953-7.8125-4.1953h-7.8125c0 5.1797 4.1953 9.375 9.375 9.375h6.25v4.6875h-10.938v3.125h84.375v-3.125h-10.938v-15.625z"/>
 </g>
</svg>
