<?xml version="1.0" encoding="UTF-8"?>
<svg width="100pt" height="100pt" version="1.1" viewBox="0 0 100 100" xmlns="http://www.w3.org/2000/svg">
 <g>
  <path d="m15.934 53.918c0.18359 0.51562 0.61719 0.91797 1.168 1.0508l4.918 1.2344-1.1016 3.3008c-0.19922 0.60156-0.050781 1.25 0.39844 1.6992l0.5 0.5-0.51562 0.53516c-0.63281 0.64844-0.63281 1.6992 0.015625 2.3516l2.832 2.8008v2.6094c0 3.418 2.5664 6.25 5.9492 6.6016 2.0508 0.21484 4.0508 0.13281 5.9844 0.066407 0.53516-0.015625 1.0508-0.035157 1.5664-0.050781 3.4492-0.066407 5.082 2.1328 5.8672 4.0352 0.96484 2.3008 1.418 4.8828 1.3672 7.668-0.015624 0.51563 0.21484 1 0.61719 1.3164 0.30078 0.25 0.66797 0.38281 1.0508 0.38281 0.11719 0 0.25-0.015625 0.36719-0.035156l26.883-6c0.5-0.11719 0.91797-0.44922 1.1328-0.89844 0.21484-0.46484 0.21484-1-0.015625-1.4648-2.5156-5.0664-3.3516-9.5508-2.5352-13.684 0.015626-0.10156 0.035157-0.18359 0.035157-0.28516 0.066406-3.5352 2.168-8.0664 6.6016-14.266 3.1328-4.3828 4.8828-9.1484 5.082-13.816 0.23438-5.418-1.3164-10.75-4.6016-15.898-7.3008-11.156-20-15.707-35.684-12.84-11.117 2.0352-19.5 10.516-20.852 21.117l-0.035156 0.25c-0.015626 0.10156-0.015626 0.19922 0 0.30078l0.63281 9.5664-7.3984 10.285c-0.34766 0.46484-0.41406 1.0312-0.23047 1.5664zm10.668-10.383c0.23438-0.31641 0.33203-0.69922 0.31641-1.082l-0.66797-10.016v-0.066406c1.168-9.1484 8.4648-16.484 18.148-18.266 14.301-2.6172 25.785 1.4336 32.332 11.352 2.8984 4.5352 4.2656 9.2148 4.0664 13.934-0.16797 4.0156-1.7148 8.1836-4.4648 12.035-4.7852 6.6992-7.082 11.785-7.2148 15.984-0.80078 4.2852-0.16797 8.8008 1.9648 13.734l-22.883 5.1016c-0.16797-2.4648-0.68359-4.7852-1.582-6.918-1.6172-3.8828-4.8008-6.082-8.75-6.082h-0.26563c-0.53516 0.015625-1.0664 0.035156-1.6172 0.050781-1.8164 0.066406-3.6992 0.13281-5.5156-0.050781-1.7148-0.16797-2.9648-1.5508-2.9648-3.2852v-3.332c0-0.44922-0.18359-0.86719-0.5-1.1836l-2.1484-2.1328 0.51562-0.53516c0.63281-0.64844 0.63281-1.6992-0.015625-2.332l-0.93359-0.93359 1.332-4.0156c0.14844-0.43359 0.10156-0.91797-0.11719-1.332-0.21484-0.39844-0.60156-0.69922-1.0508-0.81641l-4.2852-1.0664z"/>
  <path d="m35.332 52.332c0.43359 0.11719 0.86719 0.16797 1.3008 0.16797 0.86719 0 1.7148-0.23438 2.4844-0.66797 1.1484-0.66797 1.9844-1.75 2.332-3.0352 0.19922-0.75 0.19922-1.5156 0.066406-2.25l2.9336-1.832c1.2188 1.2031 2.8828 1.9531 4.7188 1.9531 1.8672 0 3.5352-0.76562 4.75-2l6.2344 3.6016c-0.13281 0.71484-0.11719 1.4648 0.066406 2.1992 0.35156 1.2852 1.168 2.3672 2.332 3.0352 0.78516 0.44922 1.6484 0.66797 2.4844 0.66797 1.7344 0 3.418-0.89844 4.332-2.5 1.3828-2.3828 0.55078-5.4492-1.832-6.832-1.8828-1.082-4.168-0.78516-5.7344 0.53516l-6.25-3.6016c0.14844-0.56641 0.26562-1.1484 0.26562-1.7656 0-3.1016-2.1328-5.6836-5-6.4336v-3.8828c1.9336-0.68359 3.332-2.5156 3.332-4.6992 0-2.75-2.25-5-5-5s-5 2.25-5 5c0 2.168 1.3984 4 3.332 4.6992v3.8828c-2.8672 0.75-5 3.332-5 6.4336 0 0.63281 0.11719 1.2344 0.28516 1.8164l-2.9648 1.8516c-1.5664-1.3008-3.832-1.582-5.6992-0.5-2.3828 1.3828-3.1992 4.4492-1.832 6.832 0.69531 1.1602 1.7656 1.9766 3.0625 2.3242zm28.27-4c0.31641-0.53516 0.86719-0.83203 1.4492-0.83203 0.28516 0 0.56641 0.066406 0.83203 0.21484 0.80078 0.46484 1.0664 1.4844 0.61719 2.2852-0.46484 0.80078-1.4844 1.0664-2.2852 0.61719-0.38281-0.21484-0.66797-0.58203-0.78516-1.0156-0.11328-0.43359-0.046876-0.88672 0.17187-1.2695zm-14.434-25c0.91797 0 1.668 0.75 1.668 1.668s-0.75 1.668-1.668 1.668-1.668-0.75-1.668-1.668 0.75-1.668 1.668-1.668zm0 13.336c1.832 0 3.332 1.5 3.332 3.332s-1.5 3.332-3.332 3.332-3.332-1.5-3.332-3.332c-0.003907-1.832 1.4961-3.332 3.332-3.332zm-13.383 9.3984c0.80078-0.46484 1.8164-0.18359 2.2852 0.61719 0.21484 0.38281 0.28516 0.83203 0.16797 1.2656-0.11719 0.43359-0.38281 0.78516-0.78516 1.0156-0.38281 0.23438-0.83203 0.28516-1.2656 0.16797-0.43359-0.11719-0.78516-0.38281-1.0156-0.78516-0.45703-0.8125-0.17188-1.832 0.61328-2.2812z"/>
 </g>
</svg>
