<?xml version="1.0" encoding="UTF-8"?>
<svg width="100pt" height="100pt" version="1.1" viewBox="0 0 100 100" xmlns="http://www.w3.org/2000/svg">
 <g>
  <path d="m42.285 85.047c0 1.8516-2.7773 1.8516-2.7773 0 0-1.8477 2.7773-1.8477 2.7773 0"/>
  <path d="m61.762 70.098c-8.2461 0-14.953 6.707-14.953 14.953 0 8.2461 6.707 14.953 14.953 14.953 8.2461 0 14.953-6.707 14.953-14.953 0-8.2461-6.707-14.953-14.953-14.953zm0 27.766c-7.0664 0-12.816-5.75-12.816-12.816s5.75-12.816 12.816-12.816c7.0664 0 12.816 5.75 12.816 12.816s-5.75 12.816-12.816 12.816z"/>
  <path d="m61.762 76.504c-4.7109 0-8.543 3.832-8.543 8.543s3.832 8.543 8.543 8.543c4.7109 0 8.543-3.832 8.543-8.543s-3.832-8.543-8.543-8.543zm0 14.953c-3.5352 0-6.4062-2.875-6.4062-6.4062 0-3.5352 2.875-6.4062 6.4062-6.4062 3.5352 0 6.4062 2.875 6.4062 6.4062 0.003906 3.5312-2.8711 6.4062-6.4062 6.4062z"/>
  <path d="m61.762 82.914c-1.1797 0-2.1367 0.95703-2.1367 2.1367 0 1.1797 0.95703 2.1367 2.1367 2.1367 1.1797 0 2.1367-0.95703 2.1367-2.1367 0-1.1797-0.95703-2.1367-2.1367-2.1367z"/>
  <path d="m83.461 23.699h-2.3398c-0.003906 0-0.007813-0.003907-0.011719-0.007813-0.64453-2.6758-3.4492-4.6953-6.8008-4.6953-3.3516 0-6.1562 2.0195-6.8008 4.6953 0 0.003906-0.003906 0.007813-0.011718 0.007813h-20.445c-0.003906 0-0.007812-0.003907-0.011719-0.007813-0.83203-2.5664-4.3398-4.5-8.8008-4.7695-0.003906 0-0.011719-0.003906-0.011719-0.011719v-4.5625c0-0.007812 0.003907-0.011718 0.011719-0.011718h13.43c0.59766 0 1.0781-0.48438 1.0781-1.0781v-10.18c0-0.59766-0.48438-1.0781-1.0781-1.0781h-13.43c-0.007812 0-0.011719-0.003906-0.011719-0.011719v-0.86328c0-0.5625-0.41016-1.0703-0.97266-1.1172-0.63281-0.054688-1.1641 0.44141-1.1641 1.0625v17.844c0 0.003907-0.003906 0.011719-0.011719 0.011719-5.1211 0.30859-8.9922 2.8125-8.9922 5.9492 0 3.3555 4.4219 5.9805 10.07 5.9805 5.0859 0 9.1797-2.1328 9.9414-5.0078 0-0.003906 0.003906-0.007812 0.011719-0.007812h20.348c0.003907 0 0.007813 0.003906 0.011719 0.007812 0.55078 2.7773 3.4102 4.8984 6.8438 4.8984s6.293-2.1211 6.8438-4.8984c0-0.003906 0.003906-0.007812 0.011719-0.007812h2.293c7.7773 0 14.27 6.1758 14.383 13.949 0.11328 7.9023-6.2812 14.367-14.156 14.367l-46.516-0.003906c-0.003906 0-0.007813-0.003906-0.011719-0.007813-0.59766-2.7266-3.4297-4.7969-6.8242-4.7969-3.3945 0-6.2227 2.0703-6.8242 4.7969 0 0.003907-0.003907 0.007813-0.011719 0.007813h-7.2773c-8.9727 0-16.359 7.2969-16.199 16.27 0.15234 8.6797 7.2617 15.695 15.98 15.695h18.969c0.5625 0 1.0703-0.41016 1.1172-0.97266 0.054687-0.63281-0.44141-1.1641-1.0625-1.1641h-18.805c-7.6055 0-13.953-6.0391-14.066-13.641-0.11328-7.7266 6.1406-14.051 13.844-14.051h7.5039c0.003906 0 0.007813 0.003907 0.011719 0.007813 0.59766 2.7266 3.4297 4.7969 6.8242 4.7969 3.3945 0 6.2227-2.0703 6.8242-4.7969 0-0.003906 0.003907-0.007813 0.011719-0.007813h46.516c8.8867 0 16.137-7.1523 16.293-16.004 0.15625-9.1445-7.375-16.586-16.523-16.586zm-46.301 5.0156c-4.6758 0-7.9336-2.0273-7.9336-3.8438 0-1.6758 2.7656-3.5234 6.8555-3.8047 0.007813 0 0.011719 0.003906 0.011719 0.011719v3.7383c0 0.5625 0.41016 1.0703 0.97266 1.1172 0.63281 0.054687 1.1641-0.44141 1.1641-1.0625v-3.7969c0-0.007813 0.003906-0.011719 0.011719-0.011719 4.0898 0.28125 6.8555 2.1328 6.8555 3.8047-0.003906 1.8203-3.2617 3.8477-7.9375 3.8477z"/>
  <path d="m7.0625 19.535 2.0977-3.832c0.40625-0.73828 1.4688-0.73828 1.875 0l2.0977 3.832c0.097657 0.17969 0.24609 0.32812 0.42578 0.42578l3.8359 2.0938c0.74219 0.40625 0.74219 1.4688 0 1.875l-3.8359 2.0938c-0.17969 0.097656-0.32812 0.24609-0.42578 0.42578l-2.0977 3.832c-0.40625 0.73828-1.4688 0.73828-1.875 0l-2.0977-3.832c-0.097656-0.17969-0.24609-0.32812-0.42578-0.42578l-3.8359-2.0938c-0.74219-0.40625-0.74219-1.4688 0-1.875l3.8359-2.0938c0.17969-0.10156 0.32812-0.24609 0.42578-0.42578z"/>
  <path d="m86.16 69.289 2.0977-3.832c0.40625-0.73828 1.4688-0.73828 1.875 0l2.0977 3.832c0.097656 0.17969 0.24609 0.32813 0.42578 0.42578l3.8359 2.0938c0.74219 0.40625 0.74219 1.4688 0 1.875l-3.8359 2.0938c-0.17969 0.097656-0.32812 0.24609-0.42578 0.42578l-2.0977 3.832c-0.40625 0.73828-1.4688 0.73828-1.875 0l-2.0977-3.832c-0.097656-0.17969-0.24609-0.32812-0.42578-0.42578l-3.8359-2.0938c-0.74219-0.40625-0.74219-1.4688 0-1.875l3.8359-2.0938c0.17969-0.10156 0.32812-0.24609 0.42578-0.42578z"/>
 </g>
</svg>
