<?xml version="1.0" encoding="UTF-8"?>
<svg width="100pt" height="100pt" version="1.1" viewBox="0 0 100 100" xmlns="http://www.w3.org/2000/svg">
 <g>
  <path d="m82 30.898c-0.39844-0.39844-0.80078-0.60156-1.3008-0.60156s-1 0.19922-1.3008 0.60156l-5.8984 5.8984c-0.69922 0.69922-0.69922 1.8984 0 2.6992 0.69922 0.69922 1.8984 0.69922 2.6992 0l2.6016-2.6016v6.8008c0 2.5-2 4.5-4.5 4.5h-9.1016c-1 0-1.8984 0.80078-1.8984 1.8984 0 1.1016 0.80078 1.8984 1.8984 1.8984h9.1016c4.6016 0 8.3008-3.6992 8.3008-8.3008v-6.8008l2.6016 2.6016c0.39844 0.39844 0.89844 0.60156 1.3008 0.60156 0.5 0 1-0.19922 1.3008-0.60156 0.69922-0.69922 0.69922-1.8984 0-2.6992z"/>
  <path d="m93.199 14.102c1.1992-1.1016 0.60156-3.1992-1.1016-3.3984l-6.0977-0.70312c-0.39844 0-0.80078-0.30078-1-0.69922l-2.6016-5.6016c-0.69922-1.5-2.8984-1.5-3.5 0l-2.6016 5.6016c-0.19922 0.39844-0.60156 0.69922-1 0.69922l-6.1992 0.69922c-1.6992 0.19922-2.3008 2.1992-1.1016 3.3984l4.6016 4.1992c0.30078 0.30078 0.5 0.69922 0.39844 1.1016l-1.1992 6.1016c-0.30078 1.6016 1.3984 2.8984 2.8984 2.1016l5.3984-3.1016c0.39844-0.19922 0.80078-0.19922 1.1992 0l5.3984 3.1016c1.5 0.80078 3.1992-0.39844 2.8984-2.1016l-1.1992-6.1016c-0.10156-0.39844 0.10156-0.89844 0.39844-1.1016z"/>
  <path d="m52.301 67c-0.69922-0.69922-1.8984-0.69922-2.6992 0l-5.8984 5.8984c-0.69922 0.69922-0.69922 1.8984 0 2.6992 0.69922 0.69922 1.8984 0.69922 2.6992 0l2.6016-2.6016v6.8008c0 2.5-2 4.5-4.5 4.5h-9.1016c-1 0-1.8984 0.80078-1.8984 1.8984 0 1.1016 0.80078 1.8984 1.8984 1.8984h9.1016c4.6016 0 8.3008-3.6992 8.3008-8.3008v-6.8008l2.6016 2.6016c0.39844 0.39844 0.89844 0.60156 1.3008 0.60156 0.39844 0 1-0.19922 1.3008-0.60156 0.69922-0.69922 0.69922-1.8984 0-2.6992z"/>
  <path d="m52.898 40.898c-0.80078-1.6016-3.1016-1.6016-3.8984 0l-9.6992 18.199c-0.80078 1.5 0.30078 3.1992 1.8984 3.1992h19.398c1.6992 0 2.6992-1.8008 1.8984-3.1992z"/>
  <path d="m28.898 86.102c0 6.293-5.1016 11.398-11.398 11.398s-11.398-5.1055-11.398-11.398c0-6.2969 5.1016-11.402 11.398-11.402s11.398 5.1055 11.398 11.402"/>
 </g>
</svg>
