<?xml version="1.0" encoding="UTF-8"?>
<svg width="100pt" height="100pt" version="1.1" viewBox="0 0 100 100" xmlns="http://www.w3.org/2000/svg">
 <g>
  <path d="m87.043 14.52-10.938-10.938c-0.29297-0.29297-0.69141-0.45703-1.1055-0.45703h-60.938c-0.86328 0-1.5625 0.69922-1.5625 1.5625v90.625c0 0.86328 0.69922 1.5625 1.5625 1.5625h71.875c0.86328 0 1.5625-0.69922 1.5625-1.5625v-79.688c0-0.41406-0.16406-0.8125-0.45703-1.1055zm-71.418 79.23v-87.5h58.727l7.8125 7.8125h-5.6016v-3.125h-3.125v4.6875c0 0.86328 0.69922 1.5625 1.5625 1.5625h9.375v76.562z"/>
  <path d="m18.75 9.375h3.125v3.125h-3.125z"/>
  <path d="m25 9.375h3.125v3.125h-3.125z"/>
  <path d="m31.25 9.375h3.125v3.125h-3.125z"/>
  <path d="m28.125 86.852-3.582-3.582-2.2109 2.2109 4.6875 4.6875c0.30469 0.30469 0.70703 0.45703 1.1055 0.45703s0.80078-0.15234 1.1055-0.45703l9.375-9.375-2.2109-2.2109z"/>
  <path d="m36.395 61.395-5.1445 5.1445-5.1445-5.1445-2.2109 2.2109 5.1445 5.1445-5.1445 5.1445 2.2109 2.2109 5.1445-5.1445 5.1445 5.1445 2.2109-2.2109-5.1445-5.1445 5.1445-5.1445z"/>
  <path d="m45.312 67.188h31.25v3.125h-31.25z"/>
  <path d="m45.312 82.812h31.25v3.125h-31.25z"/>
  <path d="m76.562 42.188h-0.4375l-4.0234-12.066c1.9141-0.32031 3.7695-1.0859 5.3984-2.3086l-1.875-2.5c-3.1992 2.4023-7.5547 2.4844-10.844 0.20703l-7.7188-5.3438c-0.80859-0.55859-1.7031-0.98438-2.6328-1.3438-0.62891-1.8555-2.3672-3.207-4.4297-3.207s-3.8008 1.3516-4.4258 3.207c-0.92969 0.35547-1.8242 0.78125-2.6328 1.3438l-7.7188 5.3438c-3.2891 2.2773-7.6484 2.1914-10.844-0.20703l-1.875 2.5c1.6289 1.2227 3.4844 1.9883 5.3984 2.3086l-4.0273 12.066h-0.4375c-0.86328 0-1.5625 0.69922-1.5625 1.5625 0 4.3086 3.5039 7.8125 7.8125 7.8125s7.8125-3.5039 7.8125-7.8125c0-0.86328-0.69922-1.5625-1.5625-1.5625h-0.4375l-4.0039-12.008c1.9297-0.24609 3.8203-0.92969 5.5-2.0938l7.7188-5.3438c0.3125-0.21484 0.64453-0.39453 0.98438-0.57031 0.51562 1.1836 1.5117 2.1016 2.7344 2.5391l0.003906 25.289h-6.25c-2.5859 0-4.6875 2.1016-4.6875 4.6875v3.125c0 0.86328 0.69922 1.5625 1.5625 1.5625h21.875c0.86328 0 1.5625-0.69922 1.5625-1.5625v-3.125c0-2.5859-2.1016-4.6875-4.6875-4.6875h-6.25v-25.289c1.2266-0.4375 2.2188-1.3516 2.7344-2.5391 0.33594 0.17578 0.67188 0.35547 0.98438 0.57031l7.7188 5.3438c1.6797 1.1641 3.5703 1.8477 5.5 2.0938l-4 12.008h-0.4375c-0.86328 0-1.5625 0.69922-1.5625 1.5625 0 4.3086 3.5039 7.8125 7.8125 7.8125s7.8125-3.5039 7.8125-7.8125c0-0.86328-0.69922-1.5625-1.5625-1.5625zm-46.875 6.25c-2.0391 0-3.7734-1.3047-4.4219-3.125h8.8398c-0.64453 1.8203-2.3789 3.125-4.418 3.125zm-2.5195-6.25 2.5195-7.5586 2.5195 7.5586zm32.207 12.5v1.5625h-18.75v-1.5625c0-0.86328 0.70312-1.5625 1.5625-1.5625h15.625c0.85938 0 1.5625 0.69922 1.5625 1.5625zm-9.375-32.812c-0.85938 0-1.5625-0.69922-1.5625-1.5625s0.70312-1.5625 1.5625-1.5625 1.5625 0.69922 1.5625 1.5625-0.70312 1.5625-1.5625 1.5625zm20.312 12.754 2.5195 7.5586h-5.0391zm0 13.809c-2.0391 0-3.7734-1.3047-4.4219-3.125h8.8398c-0.64453 1.8203-2.3789 3.125-4.418 3.125z"/>
 </g>
</svg>
