<?xml version="1.0" encoding="UTF-8"?>
<svg width="100pt" height="100pt" version="1.1" viewBox="0 0 100 100" xmlns="http://www.w3.org/2000/svg">
 <path d="m72.109 44.062v11.875h22.266v-11.875h-10v-8.2812h-33.203v-7.1094-0.23438h17.031v-12.812h-36.328v12.812h17.031v0.23438 7.1094h-33.281v8.2812h-10v11.875h10v16.641h-10v11.797h22.266v-11.797h-9.9219v-7.8906h30.859v7.8906h-10v11.797h22.266v-4.6875h10.938v4.7656h22.266v-11.875h-22.188v4.7656h-10.938v-4.7656h-10v-10.234h-33.203v-6.4062h10v-11.875h-10v-5.9375h30.859v5.9375h-10v11.875h22.266v-11.875h-9.9219v-5.9375h30.859v5.9375zm-37.891-26.094h31.562v8.125h-31.562zm-8.6719 64.062h-17.578v-7.1094h17.578zm48.906-7.1094h17.578v7.1094h-17.578zm-15.625 7.1094h-17.656v-7.1094h17.578v7.1094zm-33.281-28.438h-17.578v-7.1875h17.578zm33.281 0h-17.656v-7.1875h17.578v7.1875zm33.203 0h-17.578v-7.1875h17.578z"/>
</svg>
