<?xml version="1.0" encoding="UTF-8"?>
<svg width="100pt" height="100pt" version="1.1" viewBox="0 0 100 100" xmlns="http://www.w3.org/2000/svg">
 <path d="m49.594 4.8125c-14.398 0.16797-28.477 7.1992-37 20.031l-6.1562-4-0.71875 14-0.75 14.062 12.5-6.4062 12.531-6.375-6.625-4.2812c9.8438-14.652 29.492-18.684 44.281-8.9688 9.4258 6.1914 14.531 16.406 14.531 26.844l12.781 0.03125c-0.027344-14.625-7.1602-28.996-20.25-37.594-7.7344-5.0781-16.484-7.4453-25.125-7.3438zm-4.5938 20.188v20h-20v10h20v20h10v-20h20v-10h-20v-20zm-39.938 25c0.027344 14.625 7.1641 28.965 20.25 37.562 20.621 13.547 48.488 7.8398 62.125-12.688l6.125 4.0312 0.71875-14 0.78125-14.062-25.062 12.75 6.625 4.3125c-9.8438 14.652-29.461 18.652-44.25 8.9375-9.4258-6.1914-14.562-16.406-14.562-26.844z"/>
</svg>
