<?xml version="1.0" encoding="UTF-8"?>
<svg width="100pt" height="100pt" version="1.1" viewBox="0 0 100 100" xmlns="http://www.w3.org/2000/svg">
 <g>
  <path d="m57.602 41.801h-8.3008c-0.5-0.69922-1.1016-1.3008-1.8008-1.8008v-19.398c0-1.6992-1.3984-3-3-3-1.6992 0-3 1.3984-3 3v19.398c-1.6016 1-2.8008 2.8008-2.8008 4.8008 0 3.1992 2.6016 5.8008 5.8008 5.8008 2.1016 0 3.8008-1.1992 4.8008-2.8008h8.3008c1.6992 0 3-1.3984 3-3 0-1.6016-1.4023-3-3-3z"/>
  <path d="m84.301 57.398c1.3008-4 2.1016-8.1992 2.1016-12.5 0-23.199-18.898-42-42-42-23.199 0-42 18.801-42 42 0 23.102 18.801 42 42 42 4.6992 0 9.3008-0.80078 13.5-2.3008 3.1016 7.3984 10.398 12.602 19 12.602 11.398 0 20.602-9.1992 20.602-20.602-0.003906-8.7969-5.5039-16.199-13.203-19.199zm-27.902 19.102c0 0.69922 0.10156 1.3984 0.19922 2.1016-2.8984 1-5.8984 1.6992-9.1016 2v-8.5c0-1.6992-1.3984-3-3-3-1.6992 0-3 1.3984-3 3v8.3984c-7.6016-0.69922-14.5-3.6016-20-8.3008l5.8984-5.8984c1.1992-1.1992 1.1992-3.1016 0-4.3008s-3.1016-1.1992-4.3008 0l-5.8984 5.8984c-4.6992-5.5-7.6016-12.398-8.3008-20h8.3008c1.6992 0 3-1.3984 3-3 0-1.6016-1.3984-3-3-3h-8.2969c0.69922-7.6016 3.6016-14.5 8.3008-20l5.8984 5.8984c0.60156 0.60156 1.3984 0.89844 2.1016 0.89844 0.69922 0 1.6016-0.30078 2.1016-0.89844 1.1992-1.1992 1.1992-3.1016 0-4.3008l-5.8984-5.8984c6.3008-5.3008 14.199-8.6016 23-8.6016 8.8008 0 16.801 3.3008 23 8.6016l-5.8984 5.8984c-1.1992 1.1992-1.1992 3.1016 0 4.3008 0.60156 0.60156 1.3984 0.89844 2.1016 0.89844 0.69922 0 1.6016-0.30078 2.1016-0.89844l5.8984-5.8984c4.6992 5.5 7.6016 12.398 8.3008 20h-8.3984c-1.6992 0-3 1.3984-3 3 0 1.6016 1.3984 3 3 3h8.5c-0.19922 2.8984-0.80078 5.6016-1.6992 8.3008-0.5 0-1-0.19922-1.5-0.19922-11.207 0-20.41 9.1992-20.41 20.5zm23.402-9.8984v11.699c0 1.6016-1.3008 2.8984-2.8984 2.8984-1.6016 0-2.8984-1.3008-2.8984-2.8984l-0.003906-11.699c0-1.6016 1.3008-2.8984 2.8984-2.8984 1.6016-0.003906 2.9023 1.2969 2.9023 2.8984zm-2.9023 22.797c-1.6016 0-2.8984-1.3008-2.8984-2.8984 0-1.6016 1.3008-2.8984 2.8984-2.8984 1.6016 0 2.8984 1.3008 2.8984 2.8984 0.003906 1.6016-1.2969 2.8984-2.8984 2.8984z"/>
 </g>
</svg>
