<?xml version="1.0" encoding="UTF-8"?>
<svg width="100pt" height="100pt" version="1.1" viewBox="0 0 100 100" xmlns="http://www.w3.org/2000/svg">
 <path d="m14.051 79.691c-1.8906 0-3.543 0.70703-4.7227 1.8906-4.0156 4.1328-1.1797 11.098 4.7227 11.098 3.543 0 6.4922-2.832 6.4922-6.4922s-2.9531-6.4922-6.4922-6.4922zm5.7852-2.2422 7.082-6.9648c-2.3594-2.832-3.7773-6.4922-3.7773-10.391 0-5.9023 3.3047-11.336 8.5-14.168l-2.2422-5.668c-3.3047 0.70703-6.8477-0.47266-9.3281-2.832-1.8906-1.8906-3.0703-4.6055-3.0703-7.4375 0-1.6523 0.35547-3.1875 1.0625-4.4883l-4.7227-3.543c-1.1797 0.82812-2.4805 1.2969-4.0156 1.2969-5.9023 0-8.9727-7.2031-4.7227-11.336 2.5977-2.5977 6.8477-2.5977 9.4453 0 1.1797 1.1797 2.0078 2.832 2.0078 4.7227 0 0.70703-0.11719 1.418-0.35547 2.125l4.7227 3.4258c1.8906-1.6523 4.3672-2.7148 7.082-2.7148 0.82812 0 1.5352 0 2.2422 0.11719l2.125-4.957-0.47266-0.47266c-1.1797-1.1797-2.0078-2.832-2.0078-4.7227 0-3.6602 3.0703-6.6133 6.7305-6.6133s6.7305 2.9531 6.7305 6.6133c0 1.8906-0.82812 3.543-2.0078 4.7227-1.5352 1.5352-3.3047 2.125-5.3125 2.0078l-2.125 5.0781c0.58984 0.35547 1.0625 0.82812 1.5352 1.2969 1.8906 1.8906 3.0703 4.4883 3.0703 7.4375 0 3.543-1.7695 6.9648-4.8398 8.8555l2.125 5.668c5.5508-1.418 11.336 0.11719 15.348 4.1328 0.47266 0.47266 0.94531 0.94531 1.2969 1.5352l13.461-8.6172c-1.7695-4.3672-0.35547-9.207 3.1875-12.16l-2.2422-4.4883c-2.2422 0.47266-4.3672-0.23438-5.9023-1.7695-2.5977-2.5977-2.7148-6.8477 0-9.4453 2.5977-2.7148 6.8477-2.7148 9.4453-0.11719 4.4883 4.6055 0 9.5625 0 9.5625l2.2422 4.4883c2.125-0.58984 4.25-0.58984 6.375 0l7.3203-13.105c-2.5977-2.5977-2.4805-6.7305 0.11719-9.3281 2.5977-2.5977 6.8477-2.5977 9.4453 0 2.5977 2.5977 2.5977 6.8477 0 9.4453-1.6523 1.6523-3.8945 2.2422-6.1406 1.8906l-7.3203 13.105c4.7227 3.8945 5.0781 11.098 0.70703 15.465-4.1328 4.1328-10.742 4.1328-14.875 0l-0.23438-0.23437-13.461 8.7383c1.1797 2.7148 1.5352 5.7852 1.1797 8.7383l6.6133 1.7695c0.47266-1.0625 1.1797-2.0078 2.0078-2.832 4.1328-4.1328 10.742-4.1328 14.875 0 2.3594 2.3594 3.543 5.7852 2.9531 9.0898l3.1875 0.70703c0.23438-0.47266 0.58984-0.94531 1.0625-1.2969 2.5977-2.5977 6.8477-2.5977 9.4453 0s2.5977 6.8477 0 9.4453c-2.5977 2.5977-6.8477 2.5977-9.4453 0-1.1797-1.0625-1.8906-2.5977-2.0078-4.25l-3.6602-0.82812c-0.82812 1.5352-2.125 2.832-3.6602 3.6602l3.543 6.1406c2.2422-0.47266 4.4883 0.23438 6.1406 1.7695 2.5977 2.5977 2.5977 6.8477 0 9.4453-2.5977 2.5977-6.8477 2.7148-9.4453 0-2.4805-2.4805-2.5977-6.6133-0.23438-9.207l-3.8945-6.8477c-1.7695 0.23438-3.6602 0-5.4297-0.70703l-4.1328 7.3203c1.0625 1.1797 1.7695 2.7148 1.7695 4.4883 0 3.6602-3.0703 6.7305-6.7305 6.7305s-6.7305-3.0703-6.7305-6.7305c0-3.6602 3.0703-6.7305 6.7305-6.7305 0.47266 0 1.0625 0.11719 1.5352 0.23438l4.25-7.4375c-2.2422-2.2422-3.3047-4.957-3.1875-8.2656l-6.6133-1.8906c-3.8945 9.6797-15.938 13.223-24.32 7.082l-7.2031 7.082c0.47266 0.58984 0.82813 1.1797 1.0625 1.8906 1.6523 3.8945 0.70703 8.3828-2.2422 11.453-4.1328 4.1328-10.863 4.1328-14.875 0-4.1328-4.1328-4.1328-10.742 0-14.875 2.9531-2.9531 7.4375-3.8945 11.453-2.2422 0.58984 0.23438 1.2969 0.58984 1.7695 0.94531zm-7.793-60.805c0-0.82812-0.35547-1.418-0.82812-1.8906-0.47266-0.58984-1.1797-0.82812-1.8906-0.82812-3.543 0-3.543 5.4297 0 5.4297 1.5352 0 2.7148-1.2969 2.7148-2.7148zm8.9727 13.34c0 3.543 2.9531 6.4922 6.4922 6.4922 3.6602 0 6.6133-2.9531 6.6133-6.4922 0-3.6602-2.9531-6.6133-6.6133-6.6133-3.543 0-6.4922 2.9531-6.4922 6.6133zm15.113-17.828c1.5352 0 2.7148-1.1797 2.7148-2.7148 0-1.418-1.1797-2.7148-2.7148-2.7148s-2.7148 1.2969-2.7148 2.7148c0 1.5352 1.2969 2.7148 2.7148 2.7148zm22.078 75.324c-1.5352 0-2.7148 1.1797-2.7148 2.7148 0 1.5352 1.1797 2.7148 2.7148 2.7148 1.5352 0 2.7148-1.1797 2.7148-2.7148 0-1.5352-1.1797-2.7148-2.7148-2.7148zm-10.391-36.008c-7.6758-7.5547-20.66-2.0078-20.66 8.6172 0 3.3047 1.2969 6.375 3.543 8.6172 11.453 11.336 28.336-6.0195 17.121-17.238zm44.746-43.449c-1.0625-1.0625-2.832-1.0625-3.8945 0-1.6523 1.6523-0.47266 4.6055 2.0078 4.6055 2.3594 0 3.543-2.9531 1.8906-4.6055zm-25.5 8.3828c-1.0625-0.94531-2.832-0.94531-3.8945 0-0.94531 1.0625-0.94531 2.832 0 3.8945 1.0625 1.0625 2.832 1.0625 3.8945 0s1.0625-2.832 0-3.8945zm25.5 56.082c-1.0625-0.94531-2.832-0.94531-3.8945 0-0.94531 1.0625-0.94531 2.832 0 3.8945 1.0625 1.0625 2.832 1.0625 3.8945 0s1.0625-2.832 0-3.8945zm-9.0898 16.059c-1.0625-1.0625-2.7148-1.0625-3.7773 0s-1.0625 2.832 0 3.8945c1.0625 0.94531 2.7148 0.94531 3.7773 0 1.0625-1.0625 1.0625-2.832 0-3.8945zm-3.6602-55.488c-2.5977-2.4805-6.7305-2.4805-9.207 0-2.5977 2.4805-2.5977 6.7305 0 9.207 2.4805 2.5977 6.7305 2.5977 9.207 0 2.4805-2.4805 2.4805-6.7305 0-9.207zm-3.8945 31.051c-2.4805-2.5977-6.6133-2.5977-9.207 0-2.4805 2.4805-2.4805 6.6133 0 9.207 2.4805 2.4805 6.7305 2.4805 9.207 0 2.5977-2.4805 2.5977-6.7305 0-9.207z"/>
</svg>
