<?xml version="1.0" encoding="UTF-8"?>
<svg width="100pt" height="100pt" version="1.1" viewBox="0 0 100 100" xmlns="http://www.w3.org/2000/svg">
 <g>
  <path d="m96.844 6.6875-4.0938 28.656-0.71875 5.0625-7.3125 51.094c-0.4375 3.0625-3.0938 5.375-6.1875 5.375h-57.062c-3.0938 0-5.75-2.3125-6.1875-5.375l-8.3438-58.438-0.46875-3.0938-3.3125-23.281c-0.25-1.7188 0.9375-3.2812 2.6562-3.5312 1.7188-0.21875 3.2812 0.9375 3.5312 2.6562l4.2188 29.531 7.9062 55.281h57.062l7.25-50.656 0.90625-6.4375 3.9688-27.719c0.25-1.7188 1.8125-2.9062 3.5312-2.6562s2.9062 1.8125 2.6562 3.5312z"/>
  <path d="m92.75 35.344-0.71875 5.0625c-0.4375 0.21875-0.90625 0.34375-1.4062 0.34375-1.9062 0-3.5-0.3125-4.8438-0.78125-2.2812-0.78125-3.8438-2.0625-5.25-3.1562-1.8438-1.5-3.1875-2.5625-6.1562-2.5625s-4.3125 1.0625-6.1875 2.5625c-2.1875 1.75-4.9375 3.9375-10.094 3.9375s-7.875-2.1875-10.062-3.9375c-1.875-1.5-3.2188-2.5625-6.1875-2.5625-2.9375 0-4.2812 1.0625-6.1562 2.5625-2.1875 1.75-4.9062 3.9375-10.062 3.9375s-7.875-2.1875-10.094-3.9375c-0.6875-0.5625-1.3125-1.0625-1.9688-1.4688-1.125-0.6875-2.3438-1.0938-4.1875-1.0938-1 0-1.875-0.46875-2.4375-1.1875l-0.46875-3.0938c0.46875-1.1562 1.5938-1.9688 2.9062-1.9688 1.1875 0 2.25 0.125 3.1875 0.34375 3.1875 0.625 5.1875 2.25 6.875 3.5938 1.875 1.5 3.2188 2.5625 6.1875 2.5625s4.3125-1.0625 6.1562-2.5625c2.1875-1.75 4.9062-3.9375 10.062-3.9375s7.9062 2.1875 10.094 3.9375c1.8438 1.5 3.1875 2.5625 6.1562 2.5625s4.3125-1.0625 6.1875-2.5625c2.1875-1.75 4.9375-3.9375 10.094-3.9375s7.875 2.1875 10.062 3.9375c0.78125 0.625 1.4688 1.1875 2.25 1.5938 1.0312 0.625 2.2188 0.96875 3.9375 0.96875 0.8125 0 1.5625 0.3125 2.125 0.84375z"/>
 </g>
</svg>
