<?xml version="1.0" encoding="UTF-8"?>
<svg width="100pt" height="100pt" version="1.1" viewBox="0 0 100 100" xmlns="http://www.w3.org/2000/svg">
 <g>
  <path d="m89.578 100h-79.16c-5.7422 0-10.418-4.6758-10.418-10.422v-79.16c0-5.7422 4.6758-10.418 10.418-10.418h79.164c5.7422 0 10.418 4.6758 10.418 10.418v79.164c0 5.7422-4.6758 10.418-10.422 10.418zm-79.16-95.832c-3.4453 0-6.25 2.8047-6.25 6.25v79.164c0 3.4414 2.8047 6.25 6.25 6.25h79.164c3.4414 0 6.25-2.8086 6.25-6.2539v-79.16c0-3.4453-2.8086-6.25-6.2539-6.25z"/>
  <path d="m39.582 22.918h43.75v4.168h-43.75z"/>
  <path d="m16.668 22.918h12.5v4.168h-12.5z"/>
  <path d="m16.668 47.918h29.168v4.168h-29.168z"/>
  <path d="m56.25 47.918h27.082v4.168h-27.082z"/>
  <path d="m33.332 33.332c-4.5938 0-8.332-3.7344-8.332-8.332s3.7383-8.332 8.332-8.332c4.5977 0 8.332 3.7383 8.332 8.332 0.003907 4.5977-3.7344 8.332-8.332 8.332zm0-12.5c-2.293 0-4.1641 1.8711-4.1641 4.168s1.8711 4.168 4.168 4.168c2.2969 0 4.168-1.8711 4.168-4.168-0.003906-2.2969-1.875-4.168-4.1719-4.168z"/>
  <path d="m16.668 72.918h45.832v4.168h-45.832z"/>
  <path d="m72.918 72.918h10.418v4.168h-10.418z"/>
  <path d="m66.668 83.332c-4.5977 0-8.332-3.7383-8.332-8.332 0-4.5977 3.7383-8.332 8.332-8.332 4.5977 0 8.332 3.7383 8.332 8.332 0 4.5977-3.7383 8.332-8.332 8.332zm0-12.5c-2.3008 0-4.168 1.8672-4.168 4.168s1.8672 4.168 4.168 4.168 4.168-1.8672 4.168-4.168c-0.003907-2.3008-1.8711-4.168-4.168-4.168z"/>
  <path d="m50 58.332c-4.5977 0-8.332-3.7383-8.332-8.332 0-4.5977 3.7383-8.332 8.332-8.332 4.5977 0 8.332 3.7383 8.332 8.332 0 4.5977-3.7344 8.332-8.332 8.332zm0-12.5c-2.2969 0-4.168 1.8711-4.168 4.168s1.8711 4.168 4.168 4.168 4.168-1.8711 4.168-4.168-1.8711-4.168-4.168-4.168z"/>
 </g>
</svg>
